<svg xmlns="http://www.w3.org/2000/svg" viewBox="0 0 395 722">
  <g fill="none" fill-rule="nonzero">
    <path d="M223.9 488.7c6.94-9.75 24.87-36.08 29.99-55.92l-16.83-29.22h-91.82l-6.59 11.9s19.02 47.62 23.78 69.63c10.24-5.05 30.73-10.1 61.46 3.6zm-61.47 3.6c-6.22 13.7-49.02 109.3-43.17 166.3 0 0-.36 5.78 6.95 10.46 7.32 5.05 56.7 43.3 62.93 49.43 6.58 6.49 13.53 2.16 16.46-1.45 2.93-3.24 57.07-67.1 69.14-73.59 0 0-13.17-80.8-53.04-148.98-32.2-14.43-51.59-6.86-59.27-2.17z" fill="#FADA4A"/>
    <path d="M346.08 363.15l7.32 3.25s5.85 41.85-7.32 71.07c0 0-41.7 40.04-46.83 49.78-5.12 9.38-7.68 19.48-21.22 11.9-13.53-7.57-35.12-69.98-49.38-86.57v-10.83l115.6-47.25 1.83 8.65zm-286.81 9.38s-9.52 23.45-10.61 31.39c0 0-4.76 8.3 26.34 51.58 0 0 10.24 17.32 10.97 31.03 0 0 7.32 13.35 17.56 0 10.24-13.35 41.7-71.43 49.75-75.4l1.47-11.18-90.73-33.91-4.76 6.5z" fill="#FFF"/>
    <path d="M381.57 202.98l-2.93 18.04s-6.59 22.73-6.59 33.55c0 10.82 6.59 58.44 6.59 58.44l-6.59 10.82c-9.14 26.34-25.6 38.96-25.6 38.96-63.66 43.3-111.58 46.18-111.58 46.18-7.32 4.33-26.34 7.93-32.56 5.4-6.22-2.51-42.8-5.4-48.66-3.6-6.22 1.8-23.78 0-23.78 0C42.8 379.4 32.2 337.18 32.2 337.18c-6.22-12.63-9.87-27.06-9.87-27.06s1.83-4.32 3.65-7.21c1.83-2.89 2.56-53.75 2.56-53.75l-6.58-3.97c4.76-4.33 6.58-22.36 6.58-22.36l-3.65-9.74c5.48-4.7 7.31-20.57 7.31-20.57-13.17-23.45-10.24-59.88-10.24-59.88C-4.75 92.24.73 7.82.73 7.82 27.07-8.4 107.56 89 107.56 89c6.21 6.13 37.31 20.92 37.31 20.92 23.78 7.94 96.58 1.09 96.58 1.09 10.24-2.89 39.51-26.34 39.51-26.34C329.62-3 375.35.61 375.35.61c45 42.56-1.83 179.29-1.83 179.29 2.92 4.33 2.92 20.92 2.92 20.92l5.13 2.16z" fill="#080E16"/>
    <path d="M5.85 89.35S4.02 27.3 8.41 21.53c0 0 20.5-9.38 79.76 71.43h-12.8l2.92 9.02s-17.2 11.18-17.56 21.28c0 0 17.2-1.8 21.95 5.05 0 0-12.44 30.3-20.49 25.61l-.36 10.1s-14.27 4.7-17.2 0c0 0 5.12 10.1 9.15 11.19 0 0-13.54 19.84-31.1-24.17 0 0-.36-14.8 0-18.76-.73 0-13.53-20.2-16.83-42.93zM394 85.75s-4.02-65.3-22.68-75.4c0 0-30-6.86-58.17 50.5l13.9-2.52-13.9 10.82 13.9-1.08-16.46 9.74 17.93-2.17-27.44 18.04s12.44-3.6 19.03-2.89l-10.98 6.86s7.68-1.8 13.17 0c0 0-12.8 5.4-21.22 11.9h14.27l-10.24 11.55s-14.64 18.03 14.63 30.66c29.27 12.63 14.27 23.45 14.27 23.45s16.1 11.54 18.29 18.4c0 0 26.7-31.75 34.39-60.25 0-1.08 6.58-37.16 7.31-47.62zM292.3 236.88s-15-14.06-46.46-7.21c-31.1 6.85-30.36 50.86-30.36 50.86s15.36 17.68 49.02 4.7c33.66-13 27.8-48.35 27.8-48.35zm-187.67-2.16c-35.49-13.35-38.41 20.2-38.41 20.2s1.83 32.1 27.43 37.52c25.61 5.4 34.4-7.22 34.4-7.22s12.07-37.15-23.42-50.5zm99.87 85.5s.37-15.52-31.46-15.88c-32.2-.72-26.7 15.88-26.7 15.88 12.43-5.78 25.97 24.53 30 34.27-4.4 11.18-20.86 18.03-20.86 18.03 11.34-1.08 22.68-6.13 22.68-6.13 17.2 4.33 27.07 0 27.07 0-10.24-.72-23.41-8.3-27.43-10.82-.74-35.35 26.7-35.35 26.7-35.35z" fill="#373E48"/>
    <path d="M101.34 235.81c-15.37 0-27.44 12.99-27.44 28.86s12.44 28.86 27.44 28.86c15.36 0 27.43-12.99 27.43-28.86s-16.82-28.86-27.43-28.86zm151.09-6.5c-8.42 0-16.47 3.62-22.32 9.39l.37-.36-1.1 1.08c-.73.72-1.47 1.44-2.2 2.52-1.83 2.17-3.66 5.78-5.12 9.02-1.46 3.61-2.92 7.22-3.66 10.1-.73 2.89-1.83 8.3-1.83 12.27-.36 3.97-.36 7.57-.36 7.57s.73-3.6 1.46-7.57c.73-3.6 3.66-15.51 3.66-14.8 0 19.13 16.46 28.87 32.56 28.87 12.07 0 29.27-12.99 29.27-28.86.36-15.51-14.27-29.22-30.73-29.22z" fill="#FFF"/>
    <path d="M80.85 287.76c-.73-.72-1.83-1.8-2.56-2.89l-1.47-1.44-1.46-1.44-2.2-3.25c-.36-1.08-1.09-2.16-1.46-3.6a23.93 23.93 0 01-1.1-6.5c-.36-1.8 0-6.5 0-6.5s0-1.44.37-3.24c.37-1.8.73-4.7 1.47-6.86 1.83-5.05 4.39-9.74 4.39-9.74s-2.93 4.33-4.76 9.38a31.8 31.8 0 00-2.2 7.22c-.36 2.16-.73 3.97-.73 5.05 0 1.08 0 2.89.37 5.05 0 2.16.73 4.33 1.46 6.85.73 1.09 1.1 2.17 1.83 3.61.37 1.08 1.47 2.17 2.2 3.25l1.1 1.8 1.46 1.44c1.1.73 1.83 1.8 2.92 2.53 2.2 1.44 4.03 2.89 5.86 3.6 3.65 1.81 6.22 2.9 6.22 2.9s-2.2-1.09-5.86-3.25a33.15 33.15 0 01-5.85-3.97zm156.21-58.42c1.47-.36 2.56-1.09 4.03-1.45 2.92-1.09 5.85-1.09 8.04-1.09 2.2 0 6.59 0 9.52.73 1.46.36 2.92.72 4.02 1.08 1.1.37 1.83.73 1.83.73s-.73-.36-1.83-1.09c-1.1-.36-2.56-1.09-4.02-1.45-2.93-1.09-7.69-1.45-9.88-1.45-2.2.36-5.49.73-8.42 1.81a13.58 13.58 0 00-4.02 1.82c-1.1.72-2.56 1.45-3.3 2.17-1.82 1.45-2.92 2.18-2.92 2.18l3.3-2.18a11.5 11.5 0 013.65-1.81z" fill="#FFF"/>
    <path d="M107.56 258.54c-2.57 0-4.76-1.08-4.76-2.53 0-1.44 2.2-2.52 4.76-2.52 1.1 0 1.82 0 2.56.36a51.5 51.5 0 00-4.03-5.41s-4.02-3.97-8.41-1.45c0 2.53-1.1 4.7-2.2 4.7-.73 0-1.46-.73-1.83-1.8-5.12 4.68-15 16.95 2.93 31.74 0 0 5.12 3.24 9.88-2.17s10.24-11.9 4.75-22.72c0 1.08-1.46 1.8-3.65 1.8zm160.23-3.97a20.09 20.09 0 00-1.46-4.33c-.37.72-1.1 1.08-1.47 1.08-1.1 0-1.83-.72-1.83-2.16 0-1.08.74-1.8 1.83-1.8-4.39-5.78-11.7-9.02-16.82-7.22 0 0-2.93 1.44-5.86 3.97v1.08c0 2.17-1.1 3.97-2.56 3.97-.73 0-1.1-.36-1.46-1.08a14.85 14.85 0 00-1.83 11.54c3.3 12.99 16.83 15.51 19.39 14.8 2.56-.37 13.17-10.1 12.07-19.85zm-10.24-.72c-2.2 0-4.03-1.08-4.03-2.53 0-1.44 1.83-2.52 4.03-2.52s4.02 1.08 4.02 2.52c0 1.45-1.83 2.53-4.02 2.53z" fill="#080E16"/>
    <path d="M333.64 219.94c0-1.44-1.1-2.89-2.56-3.25-1.1-.36-26.7-11.9-72.8-11.9-25.6 0-39.51 3.97-51.58 7.21-10.25 2.89-18.66 5.41-32.56 5.41-13.9 0-22.68-2.52-32.56-5.4-12.07-3.62-25.98-7.22-51.58-7.22-46.1 0-71.7 11.54-72.8 11.9a4.6 4.6 0 00-2.57 3.25l-1.46 19.48c0 1.8 1.1 3.25 2.56 3.97 1.83.72 3.66 2.16 4.03 2.52.36.72.73 2.89 1.46 5.77 2.2 10.1 5.85 28.5 10.6 40.77 5.5 14.07 11.35 20.2 24.88 25.97 8.05 3.61 20.5 5.77 32.93 5.77 11.7 0 22.68-2.16 31.83-5.77 23.41-10.1 28.9-24.89 36.22-44 1.1-2.9 1.83-5.42 2.92-7.58 5.12-14.07 5.86-15.88 13.9-15.88 7.69 0 8.78 1.8 13.9 15.88.74 2.16 1.84 4.69 2.93 7.57 6.95 19.12 12.8 34.27 36.22 44.01 9.14 3.97 20.12 5.77 31.83 5.77 12.07 0 24.5-2.16 32.92-5.77 13.54-5.77 19.4-11.9 24.88-25.97 4.76-12.27 8.41-30.67 10.6-40.77.74-3.24 1.1-5.4 1.47-6.13.37-.72 2.2-2.16 4.03-2.52 1.83-.73 2.56-2.17 2.56-3.97l-2.2-19.12zM133.9 285.96c-7.32 15.15-22.69 22.72-45.73 22.72-18.66 0-30-3.97-36.95-13.35-6.59-9.01-15-46.9-9.51-58.8 5.12-11.18 28.53-15.15 49.02-15.15 21.22 0 46.82 4.33 51.95 13.71 5.12 9.74 2.2 28.86-8.78 50.86zm162.8 9.38c-6.96 9.37-18.3 13.34-36.96 13.34-23.05 0-38.41-7.57-45.73-22.73-10.6-22-13.9-41.12-8.78-50.86 5.13-9.38 30.37-13.7 51.95-13.7 20.12 0 43.9 3.96 49.02 15.14 5.5 11.55-2.92 49.79-9.5 58.8z" fill="#FADA4A"/>
  </g>
</svg>
